<svg width="100" height="100" viewBox="0 0 100 100" fill="none" xmlns="http://www.w3.org/2000/svg">
<g clip-path="url(#clip0)">
<path d="M84.6282 82.8809C92.7404 74.307 97.7166 62.7353 97.7166 50.0002C97.7166 23.5722 76.2924 2.14783 49.8643 2.14783C23.4362 2.14783 2.01208 23.572 2.01208 50.0002C2.01208 62.6167 6.89707 74.0904 14.8758 82.6397L84.6282 82.8809Z" fill="#1C2E7A"/>
<path d="M74.2928 75.0579C74.0672 74.8872 73.8273 74.7356 73.5955 74.5889C72.106 73.6483 71.9388 73.238 72.6121 71.375C72.8914 70.6018 73.1803 69.8024 73.0166 68.9516C72.7283 67.4528 71.3793 66.8455 70.0746 66.2584C68.7132 65.6457 68.2736 65.4153 67.5771 64.5582C66.8535 63.6682 66.2041 63.1313 64.6878 63.1248C62.6904 63.1164 60.4978 64.1137 59.537 62.8625C59.0661 62.2488 59.1499 61.3615 59.2388 60.4219C59.523 57.408 58.7466 55.7246 58.5573 53.1169C58.3099 49.7046 59.5091 46.2536 61.7529 43.6925C58.0546 42.3655 54.0723 41.6327 49.9192 41.6153C46.8178 41.6022 43.8082 41.9886 40.9379 42.7241C40.5901 43.3462 40.2865 43.9972 40.0693 44.6827C39.3963 46.8075 39.7172 49.0015 40.9067 50.4083C42.2701 52.0208 44.7094 52.698 45.0707 54.4533C45.275 55.4463 44.7262 56.4189 44.1453 57.449C43.558 58.49 42.9508 59.5664 43.0315 60.8012C43.1356 62.3951 44.2944 63.4705 45.4149 64.5102C48.1008 67.003 47.3133 67.344 47.8081 68.6811C48.3833 70.2346 50.2063 70.7811 50.7909 71.9711C52.0415 74.518 47.2307 79.9108 39.274 80.7251C38.0437 80.847 36.7707 80.9437 35.8234 81.7569C34.8482 82.5937 35.208 83.0327 32.7705 83.7398C32.1672 83.9148 31.5433 84.0958 30.9705 84.4156C28.2455 85.9382 28.2267 90.5013 30.9429 92.0447C32.6295 93.0031 35.0283 92.9957 35.4728 94.5064C35.6039 94.9517 35.5549 95.2504 35.5781 95.6824C40.0899 97.0918 44.8881 97.852 49.8643 97.852C56.3683 97.852 62.5681 96.552 68.2211 94.2015C68.2695 92.6037 67.5923 91.0929 67.2367 89.63C66.9033 88.2586 66.9457 86.3828 68.1625 85.6093C68.9107 85.1333 69.9383 85.1732 70.9476 85.0009C73.1922 84.6177 75.1334 83.0884 75.8936 81.1046C76.7117 78.9685 76.0236 76.3688 74.2928 75.0579Z" fill="#73C3F9"/>
<path d="M52.5764 89.1705C47.4273 87.2131 47.0205 83.3887 47.4947 80.6875C47.6558 79.7697 47.4406 78.8609 46.9469 78.1387C44.9765 79.4012 42.364 80.4092 39.2738 80.7254C38.0435 80.8473 36.7705 80.9439 35.8232 81.7572C34.8482 82.5939 35.2078 83.033 32.7703 83.74C32.1668 83.915 31.5429 84.0961 30.9703 84.4158C28.2453 85.9385 28.2265 90.5016 30.9427 92.0449C32.6293 93.0033 35.0281 92.9959 35.4724 94.5066C35.6035 94.952 35.5545 95.2508 35.5779 95.6828C40.0896 97.0922 44.8879 97.8523 49.864 97.8523C52.326 97.8523 54.7439 97.6654 57.1057 97.3062C57.0791 94.293 57.3775 90.9957 52.5764 89.1705Z" fill="#4FABF7"/>
<path d="M48.2655 68.5117C48.1046 68.0768 48.0911 67.6021 47.978 67.1525C47.3309 64.5795 43.6911 63.417 43.5184 60.7695C43.3692 58.4859 46.01 56.5964 45.5487 54.355C45.1346 52.3431 42.6059 51.662 41.2793 50.0935C40.0848 48.6809 39.9758 46.5938 40.5346 44.8303C40.7879 44.0309 41.1588 43.2825 41.5915 42.5647C25.9974 46.2446 14.3608 60.2171 14.2901 76.9448C14.2821 78.8147 14.4222 80.6505 14.6934 82.4432C20.4247 88.6534 27.7793 93.341 36.0844 95.8345C36.083 95.822 36.0803 95.8097 36.0791 95.7972C36.0336 95.3199 36.0766 94.8287 35.941 94.3687C35.4037 92.5431 32.8387 92.5607 31.184 91.6204C28.7988 90.2652 28.8136 86.1794 31.2086 84.8415C32.4652 84.1395 34.092 84.139 35.1572 83.171C35.5115 82.8491 35.7781 82.4388 36.1412 82.1268C36.9932 81.3956 38.2067 81.3245 39.3235 81.2102C43.527 80.7802 47.8009 79.0833 50.3483 75.7122C51.2069 74.576 51.8564 73.0342 51.2288 71.7557C50.5759 70.426 48.78 69.9014 48.2655 68.5117Z" fill="#4FABF7"/>
<path d="M45.2833 76.8577C33.9445 72.8444 42.5001 60.5154 35.9887 57.0083C31.1098 54.3806 31.4541 49.2288 32.1264 46.3104C21.5146 52.4046 14.3456 63.8273 14.2901 76.9454C14.2821 78.8153 14.4222 80.6511 14.6934 82.4439C20.4247 88.6541 27.7793 93.3416 36.0842 95.8352C36.0828 95.8227 36.0801 95.8103 36.0789 95.7978C36.0334 95.3205 36.0764 94.8293 35.9408 94.3693C35.4035 92.5437 32.8385 92.5613 31.184 91.6211C28.7988 90.2658 28.8136 86.18 31.2086 84.8421C32.465 84.1402 34.092 84.1396 35.1572 83.1716C35.5115 82.8497 35.7781 82.4394 36.1412 82.1275C36.9932 81.3962 38.2065 81.3251 39.3235 81.2108C42.0932 80.9274 44.8901 80.0896 47.2069 78.5899C46.8298 77.8038 46.1577 77.1673 45.2833 76.8577Z" fill="#1E9EF4"/>
<path d="M61.2621 43.5184C59.0208 46.1614 57.8195 49.6903 58.0706 53.1527C58.2323 55.382 58.9548 57.5752 58.8019 59.8051C58.723 60.9555 58.4476 62.2451 59.1499 63.16C60.7259 65.2125 64.45 62.5668 66.5058 64.1385C66.9547 64.4816 67.2494 64.9865 67.6512 65.384C69.1475 66.8645 72.1397 66.977 72.5373 69.044C72.8356 70.5944 71.2676 72.1864 71.8916 73.6366C72.2631 74.4999 73.2487 74.8796 73.9979 75.4469C75.6141 76.6708 76.1629 79.0372 75.4377 80.9304C74.7127 82.8235 72.8639 84.179 70.8656 84.5202C69.8576 84.6923 68.7635 84.6491 67.9006 85.1978C66.4906 86.0943 66.3678 88.122 66.7627 89.7457C67.1396 91.2953 67.8439 92.8287 67.7221 94.4058C74.2563 91.7755 80.0753 87.7454 84.8095 82.686C85.0903 80.9128 85.2407 79.0958 85.2486 77.2448C85.3146 61.6197 75.27 48.3114 61.2621 43.5184Z" fill="#4FABF7"/>
<path d="M78.7005 62.77C79.3731 59.964 77.6438 57.144 74.8378 56.4714C72.0319 55.7988 69.212 57.5282 68.5393 60.3343C67.8667 63.1403 69.5961 65.9603 72.402 66.6329C75.2079 67.3055 78.0279 65.5761 78.7005 62.77Z" fill="#FFDD40"/>
<path d="M75.3987 66.4784C72.6397 65.2202 74.3086 62.862 74.3086 62.862L73.4072 60.3862C70.8227 59.862 70.8742 57.9608 71.0752 57.0083C69.5096 57.9056 68.451 59.5888 68.443 61.5229C68.4307 64.4096 70.7612 66.7598 73.6479 66.7719C74.2617 66.7745 74.8508 66.6704 75.3987 66.4784Z" fill="#FFB332"/>
<path d="M72.353 62.1837C72.0002 61.4563 72.3039 60.5807 73.0313 60.228L81.2319 56.2512L81.2768 45.618C81.2801 44.8096 81.9383 44.1571 82.7467 44.1604C83.5551 44.1639 84.2076 44.8219 84.2043 45.6303L84.1555 57.1762C84.1532 57.7348 83.833 58.2434 83.3305 58.4872L74.3088 62.8622C73.5815 63.2147 72.7057 62.9112 72.353 62.1837Z" fill="#E9EFFF"/>
<path d="M27.8998 66.2322C30.5904 65.1843 31.922 62.1536 30.8741 59.463C29.8261 56.7725 26.7955 55.4408 24.1049 56.4888C21.4143 57.5367 20.0827 60.5674 21.1307 63.2579C22.1786 65.9485 25.2093 67.2801 27.8998 66.2322Z" fill="#49D88B"/>
<path d="M28.1445 66.1106C25.5681 64.9591 26.8572 62.5304 26.8572 62.5304L26.516 60.8501C23.814 59.1899 25.4236 56.1493 25.4236 56.1493C22.8179 56.4358 20.7853 58.6376 20.774 61.3216C20.7617 64.2083 23.0921 66.5585 25.9789 66.5706C26.7507 66.5739 27.4837 66.4083 28.1445 66.1106Z" fill="#38C674"/>
<path d="M25.351 62.6551L16.3667 58.2041C15.8661 57.9561 15.5503 57.4449 15.5526 56.8863L15.6015 45.3404C15.605 44.532 16.263 43.8795 17.0714 43.8828C17.8798 43.8863 18.5323 44.5443 18.529 45.3527L18.4841 55.9859L26.6507 60.0318C27.3751 60.3908 27.6714 61.2689 27.3126 61.9932C26.9542 62.7162 26.077 63.0146 25.351 62.6551Z" fill="#E9EFFF"/>
<path d="M40.4377 32.6608L38.1391 32.6511C37.3307 32.6478 36.6781 31.9896 36.6815 31.1811C36.6848 30.3727 37.343 29.7202 38.1514 29.7235L40.45 29.7333C41.2584 29.7366 41.9109 30.3948 41.9076 31.2032C41.9043 32.0116 41.2461 32.6642 40.4377 32.6608Z" fill="#3C58A0"/>
<path d="M47.55 32.6911L45.2514 32.6813C44.443 32.6778 43.7905 32.0198 43.7938 31.2114C43.7971 30.403 44.4553 29.7505 45.2637 29.7538L47.5623 29.7636C48.3707 29.7671 49.0233 30.4251 49.02 31.2335C49.0164 32.0419 48.3584 32.6944 47.55 32.6911Z" fill="#3C58A0"/>
<path d="M54.6624 32.7206L52.3638 32.7109C51.5554 32.7074 50.9028 32.0495 50.9061 31.241C50.9095 30.4324 51.5677 29.78 52.3761 29.7833L54.6749 29.7931C55.4833 29.7966 56.1358 30.4546 56.1325 31.263C56.1288 32.0716 55.4708 32.7242 54.6624 32.7206Z" fill="#3C58A0"/>
<path d="M61.7746 32.7509L59.4757 32.7411C58.6673 32.7378 58.0148 32.0796 58.0181 31.2712C58.0214 30.4626 58.6796 29.8103 59.488 29.8136L61.7867 29.8234C62.5951 29.8267 63.2476 30.4849 63.2443 31.2933C63.2412 32.1019 62.583 32.7544 61.7746 32.7509Z" fill="#3C58A0"/>
<path d="M93.935 42.4545C100.05 36.3392 100.05 26.4244 93.935 20.3091C87.8197 14.1939 77.9049 14.1939 71.7896 20.3091C65.6744 26.4244 65.6744 36.3392 71.7896 42.4545C77.9049 48.5698 87.8197 48.5698 93.935 42.4545Z" fill="#FFC839"/>
<path d="M93.86 42.537C93.4834 42.193 93.3877 41.7143 93.377 41.3614C93.3695 41.1192 93.1537 40.9364 92.9125 40.9596C89.9164 41.2501 83.9033 39.8231 82.4443 39.4612C82.2533 39.4137 82.1205 39.2421 82.1213 39.0452L82.1877 23.3202C82.1883 23.1968 82.1338 23.0809 82.0426 22.9977C80.3815 21.4817 80.9565 19.9866 81.3707 19.3083C81.4904 19.1122 81.4227 18.8645 81.2348 18.7323C80.7692 18.4042 80.8277 17.9235 80.9404 17.604C81.0076 17.4134 80.9369 17.2005 80.7637 17.0964C80.2195 16.769 80.0043 16.3737 79.9619 15.9882C72.7311 17.3487 67.2453 23.6786 67.2131 31.3096C67.1766 39.9593 74.1588 47.0007 82.8082 47.0372C87.1123 47.0557 91.0172 45.3352 93.86 42.537Z" fill="#FFB332"/>
<path d="M92.8238 40.7245C92.7914 40.7191 92.8442 40.7286 92.7156 40.7081L92.7125 40.7099C91.6844 40.5572 90.1037 40.9114 88.5307 39.9857C87.8227 41.0419 86.992 41.8695 86.2184 42.465C85.2479 43.212 84.0524 43.615 82.8229 43.6099C81.5934 43.6046 80.4014 43.1917 79.4371 42.4364C78.669 41.8347 77.8459 41.0009 77.1471 39.9396C75.6151 40.8286 74.1119 40.4847 73.0461 40.6157C73.0459 40.6155 73.0457 40.6152 73.0455 40.615C72.9186 40.6316 72.9033 40.631 72.8467 40.6402L72.8561 40.6488C72.1387 40.7738 71.4854 41.0749 70.9299 41.5001C73.7881 44.8693 78.0438 47.0177 82.8082 47.0378C87.5738 47.0579 91.8483 44.9446 94.735 41.5984C94.1838 41.1681 93.5338 40.8609 92.8182 40.7294L92.8238 40.7245Z" fill="#E9EFFF"/>
<path d="M79.4373 42.4364C78.6692 41.8347 77.8461 41.0009 77.1473 39.9396C75.6153 40.8286 74.1121 40.4847 73.0463 40.6157C73.0461 40.6155 73.0459 40.6152 73.0457 40.615C72.9188 40.6316 72.9035 40.631 72.8469 40.6402L72.8563 40.6488C72.1389 40.7738 71.4856 41.0749 70.9301 41.5001C71.9383 42.6884 73.1209 43.7239 74.4377 44.5689C75.1242 44.4386 75.9088 44.3161 76.8075 44.2107C78.2924 44.0366 79.4207 43.562 80.277 42.9755C79.983 42.8214 79.7012 42.6431 79.4373 42.4364Z" fill="#BEC8F7"/>
<path d="M76.9626 40.041C77.6977 41.241 78.5993 42.1715 79.4358 42.8268C80.4001 43.5821 81.592 43.9951 82.8215 44.0002C84.051 44.0055 85.2465 43.6024 86.217 42.8553C87.0596 42.2067 87.9698 41.2832 88.7153 40.0883C88.2819 39.86 87.8475 39.5405 87.4239 39.0908L87.426 39.0883C86.7086 38.3278 86.5292 37.7186 86.0043 36.7938C84.0553 37.8043 81.6948 37.8229 79.6999 36.7672C79.1401 37.7344 78.9696 38.3088 78.259 39.0496L78.2612 39.0522C77.8305 39.501 77.3948 39.817 76.9626 40.041Z" fill="#FCAD6D"/>
<path d="M82.3827 37.5356C81.4622 37.4688 80.5479 37.216 79.6997 36.7672C79.1399 37.7344 78.9694 38.3088 78.2588 39.0496L78.261 39.0522C77.8307 39.501 77.3948 39.8172 76.9626 40.041C77.6977 41.241 78.5993 42.1715 79.4358 42.8268C79.602 42.9571 79.7772 43.0731 79.9559 43.1826C82.352 41.7381 82.8409 39.3828 82.8409 39.3828C82.8409 39.3828 82.6428 38.5975 82.3827 37.5356Z" fill="#FD995B"/>
<path d="M81.644 18.9309C77.7881 19.4397 77.4128 21.6231 77.4077 22.4246C77.4067 22.5928 77.3128 22.7481 77.1614 22.8211C75.1528 23.7877 76.2135 28.492 76.2135 28.492C76.4147 28.5063 76.7159 28.6803 76.8727 28.757C76.9122 28.5178 76.976 28.2822 77.0657 28.0547C77.134 27.8813 77.2192 27.7063 77.3256 27.541C77.5102 27.2541 77.5952 26.9152 77.5715 26.576C77.5036 25.5951 77.4549 23.7543 78.7516 23.1774C79.8501 22.6887 81.1938 22.9801 82.0503 23.2688C82.6065 23.4563 83.2098 23.459 83.7676 23.276C84.6264 22.9943 85.9727 22.7145 87.0668 23.2123C88.3549 23.7984 88.2942 25.6295 88.2188 26.6123C88.1926 26.9539 88.2723 27.2971 88.4559 27.5877C88.5643 27.7592 88.6501 27.941 88.718 28.1205C88.8024 28.3436 88.8622 28.5738 88.8987 28.8076C89.0971 28.7125 89.4723 28.5184 89.7143 28.5535C89.7483 27.526 89.8479 26.4186 89.8479 26.4186C91.0135 20.8305 85.7958 18.383 81.644 18.9309Z" fill="#A05838"/>
<path d="M82.0503 23.2686C82.0952 23.2838 82.1409 23.2957 82.1864 23.3084C82.1833 23.1897 82.1307 23.0786 82.0427 22.9981C80.3815 21.4821 80.9565 19.987 81.3708 19.3086C81.4368 19.2006 81.444 19.0774 81.4075 18.9661C77.7749 19.5319 77.4126 21.6397 77.4077 22.4245C77.4067 22.5926 77.3128 22.7479 77.1614 22.8209C75.1528 23.7875 76.2135 28.4918 76.2135 28.4918C76.4147 28.5061 76.7161 28.6801 76.8727 28.7569C76.9122 28.5176 76.976 28.2821 77.0657 28.0545C77.134 27.8811 77.2192 27.7061 77.3256 27.5409C77.5102 27.2539 77.5952 26.9151 77.5715 26.5758C77.5036 25.595 77.4549 23.7541 78.7516 23.1772C79.8501 22.6883 81.1938 22.9797 82.0503 23.2686Z" fill="#823C26"/>
<path d="M90.0558 28.6888C89.7567 28.4124 89.1583 28.5493 88.8991 28.7167C88.9542 29.0697 88.956 29.4304 88.9056 29.7864L88.5911 32.007C88.5903 32.1861 88.5839 32.3618 88.5728 32.5343C89.3157 32.7618 89.688 32.0956 89.7523 31.6376C89.7798 31.4406 89.8245 31.2462 89.886 31.0568C90.0866 30.4396 90.805 29.3812 90.0558 28.6888Z" fill="#FD995B"/>
<path d="M75.7167 28.628C76.018 28.3542 76.6153 28.4962 76.8731 28.6657C76.8149 29.018 76.8102 29.379 76.8577 29.7354L77.1534 31.9585C77.1526 32.1376 77.1575 32.3133 77.1673 32.486C76.4225 32.7073 76.0557 32.0379 75.9954 31.5794C75.9694 31.3819 75.9264 31.1874 75.8665 30.9973C75.6712 30.3784 74.9618 29.3139 75.7167 28.628Z" fill="#FD995B"/>
<path d="M88.8097 28.0295C88.7417 27.85 88.6559 27.6684 88.5477 27.4967C88.3641 27.2061 88.2845 26.8629 88.3106 26.5213C88.386 25.5385 88.3559 23.6159 87.0679 23.0297C85.9735 22.5319 84.6276 22.8118 83.7686 23.0932C83.2108 23.276 82.6073 23.2735 82.051 23.086C81.1946 22.7971 79.851 22.5059 78.7526 22.9946C77.4559 23.5715 77.4131 25.5034 77.4809 26.484C77.5044 26.8233 77.4194 27.1622 77.235 27.4491C77.1288 27.6143 77.0434 27.7895 76.9751 27.9627C76.7534 28.525 76.687 29.1358 76.7665 29.7342L77.0622 31.9579C77.0487 35.1526 78.745 37.3313 80.1909 38.4641C80.9456 39.0553 81.8788 39.3786 82.8411 39.3827C83.8034 39.3868 84.7393 39.0713 85.4989 38.4866C86.9544 37.3663 88.6688 35.2018 88.6823 32.0071L88.9968 29.7866C89.0806 29.1946 89.0216 28.5893 88.8097 28.0295Z" fill="#F9BA8F"/>
<path d="M83.3096 38.4773C82.3134 37.3466 81.1458 35.17 81.1592 31.9753L80.9581 29.7523C80.904 29.1538 80.9507 28.5431 81.1044 27.9804C81.1516 27.8069 81.2108 27.6317 81.2844 27.4663C81.4122 27.1792 81.4712 26.8401 81.4553 26.5009C81.4124 25.578 81.4389 23.8134 82.1886 23.1265C82.1425 23.1136 82.0964 23.1015 82.051 23.0862C81.1946 22.7974 79.8508 22.5062 78.7526 22.9948C77.4559 23.5718 77.4131 25.5036 77.4809 26.4843C77.5044 26.8235 77.4196 27.1624 77.235 27.4493C77.1286 27.6146 77.0434 27.7898 76.9751 27.963C76.7534 28.5253 76.687 29.136 76.7665 29.7345L77.0622 31.9581C77.0487 35.1528 78.745 37.3315 80.1909 38.4644C80.9456 39.0556 81.8788 39.3788 82.8411 39.3829C83.3063 39.3849 83.7647 39.3106 84.2007 39.1689C83.8802 39.014 83.5782 38.7821 83.3096 38.4773Z" fill="#FCAD6D"/>
<path d="M82.8025 48.5017C73.3596 48.4618 65.7098 40.7469 65.7496 31.3041C65.7894 21.8613 73.5044 14.2114 82.9472 14.2513C92.39 14.2911 100.04 22.006 100 31.4488C99.96 40.8916 92.2453 48.5415 82.8025 48.5017ZM82.9347 17.1786C75.1061 17.1456 68.71 23.4876 68.677 31.3164C68.644 39.145 74.986 45.5411 82.8148 45.5741C90.6433 45.6071 97.0393 39.2651 97.0723 31.4363C97.1055 23.6078 90.7633 17.2118 82.9347 17.1786Z" fill="#FFE98D"/>
<path d="M95.3994 42.9698C93.6869 43.0382 93.3965 41.996 93.3771 41.3614C93.3736 41.2432 93.3197 41.1397 93.2382 41.0669C90.6318 43.8524 86.9214 45.5911 82.8147 45.5737C74.9862 45.5407 68.644 39.1446 68.677 31.316C68.7072 24.1642 74.0485 18.2562 80.9401 17.3126C80.9087 17.2247 80.8487 17.1474 80.764 17.0964C79.4466 16.304 80.0542 15.1128 80.3858 14.6265C80.4282 14.5644 80.4495 14.4937 80.4557 14.422C72.184 15.5968 65.7859 22.7066 65.7496 31.3037C65.7098 40.7466 73.3596 48.4615 82.8024 48.5013C87.8015 48.5224 92.316 46.388 95.464 42.9737C95.4428 42.9714 95.4215 42.969 95.3994 42.9698Z" fill="#FFC839"/>
<path d="M28.1926 42.1695C34.3079 36.0542 34.3079 26.1394 28.1926 20.0241C22.0774 13.9088 12.1625 13.9088 6.04725 20.0241C-0.0680363 26.1394 -0.0680353 36.0542 6.04725 42.1695C12.1625 48.2848 22.0774 48.2848 28.1926 42.1695Z" fill="#38C674"/>
<path d="M28.1106 42.2593C27.734 41.9153 27.6383 41.4366 27.6276 41.0837C27.6202 40.8415 27.4043 40.6587 27.1631 40.6819C24.167 40.9724 18.1539 39.5454 16.6948 39.1835C16.5037 39.136 16.3709 38.9644 16.3717 38.7675L16.4381 23.0427C16.4387 22.9192 16.3842 22.8034 16.293 22.7202C14.6319 21.2042 15.2067 19.7091 15.6211 19.0308C15.7409 18.8347 15.6731 18.587 15.4854 18.4548C15.0198 18.1267 15.0784 17.646 15.191 17.3265C15.2582 17.1358 15.1875 16.923 15.0143 16.8187C14.4701 16.4913 14.2549 16.096 14.2125 15.7104C6.98186 17.0716 1.49611 23.4013 1.46389 31.0323C1.42736 39.6817 8.4096 46.7233 17.059 46.7599C21.3629 46.778 25.2678 45.0575 28.1106 42.2593Z" fill="#24B55E"/>
<path d="M27.0744 40.4467C27.042 40.4412 27.0947 40.4508 26.9662 40.4302L26.9631 40.432C25.9348 40.2791 24.3543 40.6336 22.7813 39.7078C22.0733 40.764 21.2426 41.5916 20.469 42.1871C19.4984 42.9341 18.3029 43.3371 17.0734 43.332C15.844 43.3267 14.652 42.9136 13.6879 42.1584C12.9197 41.5566 12.0965 40.7228 11.3979 39.6615C9.86582 40.5506 8.3627 40.2066 7.29688 40.3377C7.29668 40.3375 7.29629 40.3371 7.29629 40.3369C7.16934 40.3535 7.1541 40.3529 7.09746 40.3621L7.10684 40.3707C6.38945 40.4957 5.73613 40.7968 5.18066 41.222C8.03887 44.5912 12.2945 46.7396 17.059 46.7597C21.8246 46.7798 26.099 44.6666 28.9856 41.3203C28.4344 40.89 27.7844 40.5828 27.0688 40.4513L27.0744 40.4467Z" fill="#E9EFFF"/>
<path d="M13.6881 42.1587C12.92 41.557 12.0967 40.7232 11.3981 39.6619C9.86606 40.5509 8.36294 40.207 7.29712 40.338C7.29692 40.3378 7.29653 40.3375 7.29653 40.3373C7.16958 40.3539 7.15435 40.3533 7.09771 40.3625L7.10708 40.371C6.3897 40.496 5.73638 40.7972 5.18091 41.2224C6.18911 42.4107 7.37173 43.4462 8.68853 44.2912C9.37505 44.1609 10.1596 44.0384 11.0583 43.933C12.5432 43.7589 13.6715 43.2843 14.5278 42.6978C14.2338 42.5437 13.9518 42.3654 13.6881 42.1587Z" fill="#BEC8F7"/>
<path d="M11.2131 39.7633C11.9483 40.9633 12.8499 41.8937 13.6864 42.549C14.6506 43.3043 15.8426 43.7174 17.0721 43.7226C18.3016 43.7279 19.4971 43.3248 20.4676 42.5777C21.3102 41.9291 22.2202 41.0056 22.9659 39.8107C22.5325 39.5824 22.0981 39.2629 21.6745 38.8133L21.6766 38.8107C20.9592 38.0502 20.7797 37.441 20.2549 36.5162C18.3059 37.5267 15.9454 37.5453 13.9504 36.4896C13.3907 37.4568 13.22 38.0312 12.5096 38.7721L12.5118 38.7746C12.0813 39.223 11.6454 39.5392 11.2131 39.7633Z" fill="#FCAD6D"/>
<path d="M16.6332 37.2579C15.7127 37.1911 14.7985 36.9383 13.9502 36.4895C13.3905 37.4567 13.22 38.0311 12.5094 38.7719L12.5116 38.7745C12.0813 39.2233 11.6454 39.5395 11.2131 39.7635C11.9483 40.9635 12.8499 41.894 13.6864 42.5493C13.8526 42.6795 14.0278 42.7956 14.2065 42.9051C16.6026 41.4606 17.0914 39.1053 17.0914 39.1053C17.0914 39.1053 16.8934 38.3198 16.6332 37.2579Z" fill="#FD995B"/>
<path d="M15.8945 18.6529C12.0387 19.1617 11.6633 21.3451 11.6582 22.1467C11.657 22.3148 11.5633 22.4701 11.4119 22.5432C9.40331 23.5098 10.4642 28.214 10.4642 28.214C10.6654 28.2283 10.9666 28.4023 11.1234 28.4791C11.1629 28.2398 11.2267 28.0043 11.3164 27.7767C11.3848 27.6033 11.4699 27.4283 11.5764 27.2631C11.7609 26.9762 11.8459 26.6373 11.8225 26.298C11.7545 25.3172 11.7058 23.4764 13.0025 22.8994C14.101 22.4107 15.4447 22.7021 16.3012 22.9908C16.8574 23.1783 17.4607 23.181 18.0185 22.998C18.8773 22.7164 20.2236 22.4365 21.318 22.9344C22.606 23.5205 22.5453 25.3515 22.4699 26.3344C22.4437 26.676 22.5234 27.0191 22.707 27.3097C22.8154 27.4812 22.9012 27.6631 22.9691 27.8426C23.0535 28.0656 23.1133 28.2959 23.1498 28.5299C23.3482 28.4347 23.7234 28.2406 23.9654 28.2758C23.9994 27.2482 24.099 26.1408 24.099 26.1408C25.2642 20.5525 20.0463 18.1051 15.8945 18.6529Z" fill="#A05838"/>
<path d="M16.3009 22.9909C16.3459 23.0061 16.3916 23.018 16.4371 23.0307C16.434 22.912 16.3814 22.8009 16.2933 22.7204C14.6322 21.2044 15.207 19.7093 15.6215 19.0309C15.6875 18.9229 15.6947 18.7997 15.6582 18.6884C12.0254 19.2542 11.6633 21.362 11.6584 22.1468C11.6572 22.3149 11.5635 22.4702 11.4121 22.5432C9.40349 23.5098 10.4644 28.2141 10.4644 28.2141C10.6656 28.2284 10.9668 28.4024 11.1236 28.4792C11.1631 28.2399 11.2269 28.0044 11.3166 27.7768C11.3849 27.6034 11.4701 27.4284 11.5765 27.2632C11.7611 26.9762 11.8461 26.6374 11.8226 26.2981C11.7547 25.3173 11.706 23.4764 13.0027 22.8995C14.1008 22.4106 15.4443 22.702 16.3009 22.9909Z" fill="#823C26"/>
<path d="M24.3062 28.4108C24.0072 28.1345 23.4088 28.2714 23.1496 28.4388C23.2047 28.7917 23.2064 29.1524 23.1561 29.5085L22.8416 31.729C22.8408 31.9081 22.8344 32.0837 22.8232 32.2564C23.5662 32.4839 23.9385 31.8177 24.0027 31.3597C24.0303 31.1624 24.075 30.9683 24.1365 30.7788C24.3371 30.1616 25.0555 29.1032 24.3062 28.4108Z" fill="#FD995B"/>
<path d="M9.9674 28.35C10.2688 28.0762 10.866 28.2182 11.1238 28.3877C11.0656 28.7401 11.061 29.101 11.1084 29.4575L11.4041 31.6805C11.4033 31.8596 11.4082 32.0354 11.418 32.2081C10.6733 32.4294 10.3065 31.76 10.2461 31.3014C10.2201 31.104 10.1772 30.9094 10.1172 30.7194C9.92169 30.1004 9.21232 29.036 9.9674 28.35Z" fill="#FD995B"/>
<path d="M23.0602 27.7517C22.9922 27.5722 22.9064 27.3906 22.798 27.2189C22.6146 26.9283 22.5348 26.5851 22.5609 26.2435C22.6363 25.2607 22.6062 23.338 21.3182 22.7519C20.2238 22.2541 18.8779 22.5339 18.0189 22.8154C17.4611 22.9982 16.8574 22.9957 16.3014 22.8082C15.4449 22.5193 14.1014 22.2281 13.0029 22.7168C11.7062 23.2935 11.6635 25.2253 11.7312 26.2062C11.7547 26.5455 11.6699 26.8843 11.4853 27.1712C11.3791 27.3365 11.2937 27.5117 11.2254 27.6849C11.0037 28.2472 10.9373 28.858 11.0168 29.4564L11.3125 31.68C11.299 34.8748 12.9953 37.0535 14.4412 38.1863C15.1959 38.7775 16.1291 39.1007 17.0914 39.1048C18.0539 39.1089 18.9896 38.7935 19.7492 38.2087C21.2047 37.0884 22.9193 34.924 22.9328 31.7292L23.2473 29.5087C23.3312 28.9167 23.2721 28.3115 23.0602 27.7517Z" fill="#F9BA8F"/>
<path d="M17.5601 38.1996C16.5638 37.0689 15.3963 34.8923 15.4097 31.6976L15.2086 29.4746C15.1545 28.8761 15.2012 28.2654 15.3549 27.7027C15.4023 27.5292 15.4613 27.354 15.5349 27.1886C15.6627 26.9015 15.7217 26.5624 15.7058 26.2234C15.6631 25.3005 15.6894 23.5357 16.4392 22.8488C16.3931 22.8359 16.3471 22.8238 16.3015 22.8085C15.4451 22.5197 14.1015 22.2284 13.0031 22.7171C11.7064 23.2939 11.6637 25.2257 11.7314 26.2066C11.7549 26.5458 11.6701 26.8847 11.4855 27.1716C11.3793 27.3369 11.2939 27.512 11.2256 27.6853C11.0039 28.2476 10.9375 28.8583 11.017 29.4568L11.3127 31.6804C11.2992 34.8751 12.9955 37.0539 14.4414 38.1867C15.1961 38.7779 16.1293 39.1011 17.0916 39.1052C17.5568 39.1072 18.0154 39.033 18.4512 38.8912C18.1308 38.7363 17.8289 38.5044 17.5601 38.1996Z" fill="#FCAD6D"/>
<path d="M17.053 48.2239C7.61022 48.1841 -0.039628 40.4692 0.000215976 31.0264C0.0400599 21.5836 7.75495 13.9335 17.1978 13.9735C26.6406 14.0134 34.2904 21.7283 34.2506 31.1711C34.2106 40.6139 26.4959 48.2638 17.053 48.2239ZM17.1853 16.9009C9.35671 16.8679 2.96078 23.2099 2.92758 31.0387C2.89437 38.8674 9.23659 45.2634 17.0653 45.2964C24.8939 45.3294 31.2898 38.9874 31.3228 31.1586C31.356 23.33 25.014 16.9339 17.1853 16.9009Z" fill="#49D88B"/>
<path d="M29.6502 42.6921C27.9377 42.7605 27.6473 41.7183 27.6277 41.0837C27.6242 40.9655 27.5703 40.862 27.4889 40.7892C24.8824 43.5745 21.172 45.3134 17.0654 45.296C9.2368 45.263 2.89458 38.8669 2.92759 31.0383C2.95786 23.8867 8.2991 17.9785 15.1907 17.0349C15.1593 16.947 15.0993 16.8697 15.0146 16.8187C13.6972 16.0263 14.3048 14.8351 14.6362 14.3488C14.6786 14.2867 14.6999 14.216 14.7062 14.1443C6.43444 15.3191 0.0363612 22.4291 3.28704e-05 31.026C-0.0398111 40.4689 7.61004 48.1837 17.0529 48.2236C22.0519 48.2447 26.5664 46.1103 29.7145 42.696C29.6934 42.6937 29.6721 42.6913 29.6502 42.6921Z" fill="#38C674"/>
</g>
<defs>
<clipPath id="clip0">
<rect width="100" height="100" fill="white"/>
</clipPath>
</defs>
</svg>
