<svg width="100" height="100" viewBox="0 0 100 100" fill="none" xmlns="http://www.w3.org/2000/svg">
<g clip-path="url(#clip0)">
<path d="M26.0871 92.3387L27.9375 93.5213C34.0014 96.3006 40.7451 97.8518 47.852 97.8518C55.9104 97.8518 63.5016 95.8569 70.1641 92.3385H26.0871V92.3387Z" fill="#1C2E7A"/>
<path d="M16.7851 86.3933L18.038 87.1941H77.9558C88.7818 78.4211 95.7039 65.0199 95.7039 49.9998C95.7039 23.5719 74.2798 2.14783 47.8519 2.14783C40.7451 2.14783 34.0013 3.69919 27.9375 6.4783L7.80855 76.2015C10.3068 80.0117 13.3332 83.4437 16.7851 86.3933Z" fill="#FFDD40"/>
<path d="M69.09 6.47827H27.9377C11.4521 14.0341 0 30.6787 0 49.9998C0 54.7623 0.699023 59.3607 1.99453 63.7021H34.0721V58.9904C34.0721 57.491 35.2416 56.2119 36.735 56.0783L37.0018 56.0544V49.4638C37.0018 47.099 38.9258 45.175 41.2906 45.175H75.7588V13.1472C75.7588 9.46987 72.7672 6.47827 69.09 6.47827Z" fill="#167CC1"/>
<path d="M4.09361 30.6124C6.07779 32.1598 7.87721 34.077 9.45885 36.3846C19.1854 50.5774 28.3987 47.8505 37.5583 47.3552C38.2958 46.0548 39.6921 45.1749 41.2907 45.1749H71.462V17.4344H12.7946C9.21178 21.2899 6.25709 25.7362 4.09361 30.6124Z" fill="#73C3F9"/>
<path d="M18.9098 17.4347H12.7948C9.21178 21.29 6.25728 25.7363 4.09361 30.6124C6.07779 32.1599 7.87721 34.0771 9.45885 36.3847C12.6592 41.0546 15.8042 43.8925 18.9098 45.581V17.4347Z" fill="#4FABF7"/>
<path d="M47.2851 25.7472C56.0777 36.5087 63.9387 39.1735 71.4619 39.2083V17.4344H37.5193C41.0941 19.4251 44.3722 22.1821 47.2851 25.7472Z" fill="#9BD8F9"/>
<path d="M69.09 10.7751H20.441C17.515 12.8238 14.8269 15.189 12.431 17.8251H71.4619V13.1472C71.4619 11.8615 70.3758 10.7751 69.09 10.7751Z" fill="#2A428C"/>
<path d="M18.9097 15.1665C18.9097 13.7706 19.2226 12.4448 19.7785 11.2531C17.1093 13.1898 14.6443 15.3902 12.431 17.8255H18.9097V15.1665Z" fill="#1C2E7A"/>
<path d="M14.4234 15.7651H48.9883C49.7973 15.7651 50.4531 15.1093 50.4531 14.3003C50.4531 13.4913 49.7973 12.8354 48.9883 12.8354H17.7109C16.5703 13.7618 15.4736 14.7396 14.4234 15.7651Z" fill="#3C58A0"/>
<path d="M65.9258 15.7651H64.0166C63.2076 15.7651 62.5517 15.1093 62.5517 14.3003C62.5517 13.4913 63.2076 12.8354 64.0166 12.8354H65.9258C66.7347 12.8354 67.3906 13.4913 67.3906 14.3003C67.3906 15.1093 66.7349 15.7651 65.9258 15.7651Z" fill="#3C58A0"/>
<path d="M59.2879 15.7651H57.3785C56.5696 15.7651 55.9137 15.1093 55.9137 14.3003C55.9137 13.4913 56.5696 12.8354 57.3785 12.8354H59.2879C60.0969 12.8354 60.7527 13.4913 60.7527 14.3003C60.7527 15.1093 60.0969 15.7651 59.2879 15.7651Z" fill="#3C58A0"/>
<path d="M61.3527 24.4657H43.5223V29.5997H61.3527C62.7705 29.5997 63.9197 28.4504 63.9197 27.0327C63.9197 25.6149 62.7705 24.4657 61.3527 24.4657Z" fill="#E9EFFF"/>
<path d="M51.7262 27.0327C51.7262 25.6149 52.8754 24.4657 54.2932 24.4657H43.5225V29.5997H54.2932C52.8754 29.5997 51.7262 28.4504 51.7262 27.0327Z" fill="#D3DCFB"/>
<path d="M43.7178 24.4657H40.8365C39.4187 24.4657 38.2695 25.6149 38.2695 27.0327C38.2695 28.4504 39.4187 29.5997 40.8365 29.5997H43.7178V24.4657Z" fill="#3C58A0"/>
<path d="M9.78086 36.1638C8.09336 33.7015 6.22676 31.7583 4.25977 30.2371C1.52422 36.2613 0 42.9525 0 49.9998C0 54.7623 0.699023 59.3607 1.99453 63.7021H34.0721V58.9904C34.0721 57.491 35.2416 56.2119 36.735 56.0783L37.0018 56.0544V49.4638C37.0018 48.525 37.3059 47.6562 37.8193 46.9492C28.5342 47.4103 19.5016 50.348 9.78086 36.1638Z" fill="#4FABF7"/>
<path d="M18.9098 45.1486C15.9164 43.4726 12.8838 40.6916 9.78086 36.1641C8.09336 33.7018 6.22676 31.7586 4.25977 30.2373C1.52422 36.2615 0 42.9525 0 49.9998C0 54.7623 0.699023 59.3607 1.99453 63.7021H18.9098V45.1486Z" fill="#1E9EF4"/>
<path d="M34.0721 90.3027V75.8109H18.5203L17.4373 83.8924C17.3111 84.8332 17.076 85.6642 16.7851 86.3933C20.1348 89.2554 23.8836 91.6632 27.9375 93.5213H37.1984V93.2283H36.9974C35.3844 93.2283 34.0721 91.916 34.0721 90.3027Z" fill="#D3DCFB"/>
<path d="M34.0721 90.3027V75.8109H24.4523L24.1299 76.2015C24.1299 76.2015 26.9918 77.7347 26.9918 80.6644C26.9918 83.5941 26.9918 86.88 26.9918 86.88C26.9918 86.88 27.058 90.9097 23.6508 91.2853C25.0367 92.0996 26.4668 92.847 27.9377 93.5211H37.1986V93.2281H36.9976C35.3844 93.2283 34.0721 91.916 34.0721 90.3027Z" fill="#BEC8F7"/>
<path d="M7.80857 76.2016H34.072V63.3115H1.8783C3.21462 67.9348 5.23005 72.2691 7.80857 76.2016Z" fill="#E9EFFF"/>
<path d="M18.9097 67.8367V63.3115H1.8783C3.21462 67.9348 5.23005 72.2689 7.80857 76.2016H24.1299C21.0449 74.6766 18.9097 71.4945 18.9097 67.8367Z" fill="#D3DCFB"/>
<path d="M27.6395 72.6316C29.2272 72.6316 30.5143 71.3445 30.5143 69.7568C30.5143 68.1691 29.2272 66.882 27.6395 66.882C26.0518 66.882 24.7647 68.1691 24.7647 69.7568C24.7647 71.3445 26.0518 72.6316 27.6395 72.6316Z" fill="#BEC8F7"/>
<path d="M92.9347 44.882H41.2906C38.7707 44.882 36.7088 46.9439 36.7088 49.4638V56.1773C36.8037 56.1675 36.9 56.1626 36.9976 56.1626H52.0055C53.5646 56.1626 54.8334 57.4312 54.8334 58.9904V86.8802H97.5117C97.5142 86.8179 97.5164 86.7556 97.5164 86.6929V49.4636C97.5166 46.9437 95.4547 44.882 92.9347 44.882Z" fill="#167CC1"/>
<path d="M71.353 85.9761C69.0467 83.7367 69.8502 81.2666 70.6356 79.8759C70.9516 79.3164 70.7291 78.5994 70.1465 78.3283C67.2559 76.9832 67.7465 74.2181 68.0492 73.1873C68.1297 72.9134 68.0975 72.6193 67.9655 72.3664L65.1783 67.0228C65.1016 66.8758 64.9946 66.7451 64.86 66.648C63.0783 65.3609 63.4332 63.4994 63.8422 62.4404C64.0205 61.9787 63.8615 61.4502 63.4615 61.1586C61.4934 59.7226 61.9541 57.5779 62.3731 56.4781C62.5328 56.0586 62.4283 55.5802 62.0979 55.2761C59.8196 53.1797 60.5115 50.9676 61.0631 49.9109C61.2588 49.5359 61.242 49.0793 61.0016 48.7314C60.1612 47.5152 60.5176 46.3498 60.9231 45.626C61.0537 45.3926 61.0971 45.1302 61.0578 44.8822H41.2902C38.7701 44.8822 36.7084 46.9441 36.7084 49.464V56.1773C36.8033 56.1677 36.8998 56.1627 36.9971 56.1627H52.0049C53.5641 56.1627 54.8328 57.4312 54.8328 58.9904V86.8802H71.6787C71.7119 86.5547 71.6034 86.2193 71.353 85.9761Z" fill="#0E62A8"/>
<path d="M41.1033 55.3811V56.1624H52.0053C53.5644 56.1624 54.8332 57.4309 54.8332 58.9901V86.8799H92.2273C92.7215 86.8799 93.1221 86.4793 93.1221 85.9852V55.3811H41.1033Z" fill="#FF4155"/>
<path d="M41.1033 56.1624H52.0053C53.5644 56.1624 54.8332 57.4309 54.8332 58.9901V86.8799H71.6791C71.7119 86.5543 71.6033 86.219 71.3529 85.9758C69.0467 83.7364 69.8502 81.2663 70.6355 79.8756C70.9515 79.3161 70.7291 78.5991 70.1465 78.328C67.2558 76.9829 67.7465 74.2178 68.0492 73.187C68.1297 72.9131 68.0974 72.619 67.9654 72.3661L65.1783 67.0225C65.1015 66.8754 64.9945 66.7448 64.8599 66.6477C63.0783 65.3606 63.4332 63.4991 63.8422 62.4401C64.0205 61.9784 63.8615 61.4498 63.4615 61.1582C61.4933 59.7223 61.9541 57.5776 62.373 56.4778C62.5156 56.1038 62.4465 55.6834 62.1959 55.3811H41.1033V56.1624Z" fill="#E80054"/>
<path d="M98.4187 86.6849H54.8332V90.3027C54.8332 91.8621 53.5646 93.1306 52.0053 93.1306H51.0945V93.5213H94.7447C97.6471 93.5213 99.9998 91.1685 99.9998 88.2662C100 87.3929 99.292 86.6849 98.4187 86.6849Z" fill="#E9EFFF"/>
<path d="M54.8332 90.3027C54.8332 91.8621 53.5646 93.1306 52.0053 93.1306H51.0945V93.5213H72.0324C71.9713 93.3857 71.8846 93.2613 71.7715 93.1586C69.2807 90.8941 70.4851 88.6304 71.4342 87.4742C71.6223 87.2451 71.7025 86.9613 71.6818 86.6849H54.833V90.3027H54.8332Z" fill="#D3DCFB"/>
<path d="M92.2273 49.2765H41.998C41.5039 49.2765 41.1033 49.6771 41.1033 50.1712V55.7718H93.1221V50.1712C93.1221 49.6771 92.7215 49.2765 92.2273 49.2765Z" fill="#FF7186"/>
<path d="M61.0634 49.9107C61.167 49.7126 61.2092 49.4921 61.1924 49.2765H41.998C41.5039 49.2765 41.1033 49.6771 41.1033 50.1712V55.7718H62.4008C62.347 55.5857 62.2468 55.4126 62.0982 55.2759C59.8199 53.1794 60.5119 50.9671 61.0634 49.9107Z" fill="#FF4155"/>
<path d="M52.0053 92.0563H36.9975C35.2229 92.0563 33.7789 90.6126 33.7789 88.8377V57.5254C33.7789 55.7506 35.2227 54.3069 36.9975 54.3069H52.0053C53.7799 54.3069 55.2238 55.7506 55.2238 57.5254V88.8377C55.2238 90.6126 53.7799 92.0563 52.0053 92.0563Z" fill="#FFDD40"/>
<path d="M45.5586 57.5242H47.0332V54.3073H36.9976C35.223 54.3073 33.7791 55.751 33.7791 57.5258V88.8381C33.7791 90.6129 35.2228 92.0567 36.9976 92.0567H45.5588C43.7842 92.0567 42.3402 90.6129 42.3402 88.8381V60.7426C42.34 58.968 43.7838 57.5242 45.5586 57.5242Z" fill="#FFB332"/>
<path d="M39.2811 67.3661H38.7416C37.9326 67.3661 37.2768 66.7104 37.2768 65.9012C37.2768 65.0921 37.9326 64.4364 38.7416 64.4364H39.2811C40.09 64.4364 40.7459 65.0921 40.7459 65.9012C40.7459 66.7102 40.09 67.3661 39.2811 67.3661Z" fill="#FCF2C8"/>
<path d="M39.2811 72.996H38.7416C37.9326 72.996 37.2768 72.3401 37.2768 71.5311C37.2768 70.7219 37.9326 70.0663 38.7416 70.0663H39.2811C40.09 70.0663 40.7459 70.7219 40.7459 71.5311C40.7459 72.3401 40.09 72.996 39.2811 72.996Z" fill="#FCF2C8"/>
<path d="M39.2811 78.6261H38.7416C37.9326 78.6261 37.2768 77.9704 37.2768 77.1613C37.2768 76.3523 37.9326 75.6964 38.7416 75.6964H39.2811C40.09 75.6964 40.7459 76.3523 40.7459 77.1613C40.7459 77.9702 40.09 78.6261 39.2811 78.6261Z" fill="#FCF2C8"/>
<path d="M39.2811 84.2562H38.7416C37.9326 84.2562 37.2768 83.6006 37.2768 82.7914C37.2768 81.9822 37.9326 81.3265 38.7416 81.3265H39.2811C40.09 81.3265 40.7459 81.9822 40.7459 82.7914C40.7459 83.6006 40.09 84.2562 39.2811 84.2562Z" fill="#FCF2C8"/>
<path d="M50.2613 67.3661H43.8049C42.9959 67.3661 42.34 66.7104 42.34 65.9012C42.34 65.0921 42.9959 64.4364 43.8049 64.4364H50.2613C51.0703 64.4364 51.7262 65.0921 51.7262 65.9012C51.7262 66.7102 51.0703 67.3661 50.2613 67.3661Z" fill="#FCF2C8"/>
<path d="M50.2613 72.996H43.8049C42.9959 72.996 42.34 72.3401 42.34 71.5311C42.34 70.7219 42.9959 70.0663 43.8049 70.0663H50.2613C51.0703 70.0663 51.7262 70.7219 51.7262 71.5311C51.7262 72.3401 51.0703 72.996 50.2613 72.996Z" fill="#FCF2C8"/>
<path d="M50.2613 78.6261H43.8049C42.9959 78.6261 42.34 77.9704 42.34 77.1613C42.34 76.3523 42.9959 75.6964 43.8049 75.6964H50.2613C51.0703 75.6964 51.7262 76.3523 51.7262 77.1613C51.7262 77.9702 51.0703 78.6261 50.2613 78.6261Z" fill="#FCF2C8"/>
<path d="M50.2613 84.2562H43.8049C42.9959 84.2562 42.34 83.6006 42.34 82.7914C42.34 81.9822 42.9959 81.3265 43.8049 81.3265H50.2613C51.0703 81.3265 51.7262 81.9822 51.7262 82.7914C51.7262 83.6006 51.0703 84.2562 50.2613 84.2562Z" fill="#FCF2C8"/>
<path d="M52.0053 52.842H36.9974C34.4152 52.842 32.3142 54.943 32.3142 57.5254V88.8377C32.3142 91.4202 34.4152 93.5209 36.9974 93.5209H52.0053C54.5877 93.5209 56.6887 91.42 56.6887 88.8377V57.5254C56.6887 54.943 54.5877 52.842 52.0053 52.842ZM53.759 88.8377C53.759 89.8063 52.9738 90.5913 52.0053 90.5913H36.9974C36.0291 90.5913 35.2439 89.8061 35.2439 88.8377V57.5252C35.2439 56.5567 36.0291 55.7715 36.9976 55.7715H39.6994C39.8734 55.7715 40.0146 55.9125 40.0146 56.0866C40.0146 57.1172 40.8578 57.9604 41.8885 57.9604H47.1146C48.1453 57.9604 48.9885 57.1172 48.9885 56.0866C48.9885 55.9125 49.1295 55.7715 49.3037 55.7715H52.0054C52.974 55.7715 53.7592 56.5567 53.7592 57.5252V88.8377H53.759Z" fill="#167CC1"/>
<path d="M76.3079 72.264C77.2911 67.2088 73.9901 62.3136 68.9349 61.3303C63.8797 60.3471 58.9845 63.6481 58.0013 68.7034C57.018 73.7586 60.319 78.6538 65.3742 79.637C70.4295 80.6203 75.3246 77.3193 76.3079 72.264Z" fill="#E9EFFF"/>
<path d="M70.1465 78.3282C67.2559 76.9831 67.7465 74.218 68.0492 73.1872C68.1297 72.9133 68.0975 72.6192 67.9654 72.3663L65.1783 67.0227C65.1016 66.8756 64.9945 66.745 64.86 66.6479C63.0783 65.3608 63.4332 63.4993 63.8422 62.4403C63.9297 62.2139 63.935 61.9719 63.8717 61.7493C60.3215 63.0659 57.7912 66.4825 57.7912 70.4907C57.7912 75.6385 61.9645 79.8118 67.1123 79.8118C68.4025 79.8118 69.6314 79.5495 70.7488 79.0754C70.6754 78.7588 70.4654 78.4766 70.1465 78.3282Z" fill="#D3DCFB"/>
<path d="M70.9901 69.7736L65.7584 66.8251C65.2098 66.5159 64.5312 66.9124 64.5312 67.5421V73.439C64.5312 74.0687 65.2098 74.4652 65.7584 74.156L70.9901 71.2075C71.5487 70.8929 71.5487 70.0884 70.9901 69.7736Z" fill="#FF4155"/>
<path d="M42.8619 90.5914H36.9974C36.0291 90.5914 35.2439 89.8063 35.2439 88.8379V57.5254C35.2439 56.5569 36.0291 55.7717 36.9976 55.7717H39.6994C39.8734 55.7717 40.0146 55.9127 40.0146 56.0868C40.0146 57.1174 40.8578 57.9606 41.8885 57.9606H43.9441C41.8654 55.5292 43.5408 53.3946 44.0543 52.842H36.9976C34.4154 52.842 32.3144 54.943 32.3144 57.5254V88.8377C32.3144 91.4202 34.4154 93.5209 36.9976 93.5209H42.5014C41.4338 92.0036 42.7305 90.7157 42.8619 90.5914Z" fill="#0E62A8"/>
</g>
<defs>
<clipPath id="clip0">
<rect width="100" height="100" fill="white"/>
</clipPath>
</defs>
</svg>
