<svg width="100" height="100" viewBox="0 0 100 100" fill="none" xmlns="http://www.w3.org/2000/svg">
<path d="M83.8254 81.5517C91.2192 73.1285 95.7039 62.0884 95.7039 49.9998C95.7039 23.5718 74.2799 2.14783 47.852 2.14783C34.4036 2.14783 22.2532 7.69802 13.56 16.6299L28.5735 81.5517H83.8254Z" fill="#FFDD40"/>
<path d="M31.5141 94.2682L31.6956 95.0528C36.743 96.8631 42.1817 97.852 47.852 97.852C54.2936 97.852 60.4364 96.576 66.0455 94.2682H31.5141Z" fill="#1C2E7A"/>
<path d="M68.2998 46.6438V16.3063H62.351C62.3156 17.9437 62.015 19.1208 62.0156 19.3704C61.7471 22.6729 61.732 24.454 61.7201 24.6667C62.1103 24.6952 62.5873 24.6376 62.8752 24.9011C64.4703 26.3632 62.4082 28.5138 62.058 31.0952C61.9873 31.6157 61.6977 32.2813 61.2104 32.5944C60.8881 32.8019 60.5141 32.8376 60.0682 32.7028L59.4182 32.9253C59.3928 32.986 59.5043 40.8073 52.5354 46.2196C50.9283 47.4675 48.9182 48.1548 46.875 48.1548C44.8316 48.1548 42.8213 47.4675 41.2145 46.2196C39.2631 44.7044 34.6861 40.3757 34.3316 32.9263L33.6816 32.7026C33.2354 32.8374 32.8619 32.8015 32.5393 32.594C32.052 32.2806 31.7627 31.6153 31.692 31.095C31.3395 28.5038 29.2777 26.3644 30.8744 24.9009C31.2488 24.5579 31.9533 24.7239 32.4984 24.7585C32.0205 22.5659 31.4902 19.1259 31.816 16.3062H13.8758C5.29922 24.9544 0 36.8577 0 49.9997C0 64.904 6.81465 78.2157 17.4973 86.9919H89.1668C91.8436 86.9919 94.0211 84.8144 94.0211 82.1376V48.0522H69.7082C68.9305 48.0522 68.2998 47.4216 68.2998 46.6438Z" fill="#167CC1"/>
<path d="M21.9559 86.6096C19.6189 85.1145 20.9271 82.9208 21.3113 82.37C21.377 82.2759 21.4221 82.1692 21.4465 82.0571L27.4975 54.2186C27.5711 53.8798 27.442 53.5264 27.1625 53.321C15.2525 44.5618 20.9695 32.4846 22.3939 29.8981C22.5479 29.6186 22.5379 29.2804 22.3734 29.0071C21.932 28.2735 22.2854 27.6073 22.5191 27.2903C22.6301 27.1399 22.6842 26.9552 22.6842 26.7682V23.163C22.6842 22.9807 22.6162 22.8083 22.5074 22.6622C22.1734 22.2136 22.2307 21.8011 22.3646 21.5067C22.5041 21.2003 22.4695 20.8483 22.2619 20.5833C21.0887 19.0848 21.5627 17.7759 22.0732 17.013C22.2182 16.7964 22.2486 16.5397 22.1859 16.3065H13.8758C5.29922 24.9544 0 36.8577 0 49.9997C0 64.904 6.81465 78.2157 17.4973 86.9919H22.2762C22.2098 86.8374 22.1012 86.7026 21.9559 86.6096Z" fill="#0E62A8"/>
<path d="M68.2998 46.6439V28.9871H62.6551C62.3998 29.6503 62.1586 30.355 62.0582 31.0953C61.9875 31.6158 61.6978 32.2814 61.2105 32.5945C60.8883 32.8019 60.5144 32.8376 60.0683 32.7031L59.4183 32.9255C59.393 32.9863 59.5045 40.8076 52.5355 46.2199C50.9285 47.4677 48.9183 48.1548 46.8752 48.1548C44.8318 48.1548 42.8215 47.4675 41.2146 46.2199C39.2633 44.7046 34.6863 40.3759 34.3318 32.9265L33.6818 32.7031C33.2355 32.8376 32.8621 32.8019 32.5394 32.5945C32.0521 32.281 31.7629 31.6158 31.6922 31.0955C31.5914 30.3541 31.3504 29.6496 31.0953 28.9873C18.0215 28.9873 7.26502 28.9873 4.85154 28.9873C4.72537 29.2453 4.60193 29.5048 4.48026 29.7654V70.2345C6.51209 74.5822 9.17615 78.575 12.3578 82.0918L46.875 80.7005L85.1037 82.241H89.1666C89.2178 82.241 89.2699 82.1888 89.2699 82.1376V48.0523H69.7082C68.9305 48.0523 68.2998 47.4216 68.2998 46.6439Z" fill="#3C58A0"/>
<path d="M27.1625 53.3212C15.2526 44.562 20.9696 32.4849 22.394 29.8984C22.5479 29.6189 22.5379 29.2806 22.3735 29.0073C22.3694 29.0007 22.3666 28.9941 22.3627 28.9874C13.4379 28.9874 6.69926 28.9874 4.85141 28.9874C4.72524 29.2454 4.6018 29.505 4.48012 29.7654V70.2345C6.51195 74.5822 9.17602 78.5749 12.3577 82.0917L21.5194 81.7226L27.4975 54.2191C27.5711 53.88 27.4418 53.5267 27.1625 53.3212Z" fill="#2A428C"/>
<path d="M9.74549 21.0573C7.77772 23.6442 6.06639 26.4364 4.65135 29.398H31.248C30.5896 27.565 29.6414 26.0314 30.8744 24.9011C31.2488 24.5581 31.9533 24.7241 32.4984 24.7587C32.2752 23.7341 32.0406 22.4362 31.8867 21.0571C22.8467 21.0573 14.8228 21.0573 9.74549 21.0573Z" fill="#2A428C"/>
<path d="M4.65163 29.3982H22.4985C22.4872 29.2624 22.4464 29.1284 22.3735 29.0073C21.9321 28.2737 22.2854 27.6075 22.5192 27.2905C22.6301 27.1401 22.6842 26.9554 22.6842 26.7685V23.1632C22.6842 22.981 22.6163 22.8085 22.5075 22.6624C22.1735 22.2138 22.2307 21.8013 22.3647 21.507C22.4303 21.3626 22.4559 21.2083 22.4446 21.0577C17.3575 21.0577 12.9604 21.0577 9.74577 21.0577C7.7778 23.6445 6.06647 26.4366 4.65163 29.3982Z" fill="#1C2E7A"/>
<path d="M68.2998 29.398V21.0574C65.1615 21.0574 62.6974 21.0574 61.8904 21.0574C61.7416 23.282 61.7298 24.4939 61.7203 24.6667C62.1105 24.6953 62.5875 24.6376 62.8754 24.9011C64.1064 26.0294 63.1595 27.5681 62.5021 29.398H68.2998Z" fill="#2A428C"/>
<path d="M11.4424 27.0518C12.5825 26.7972 13.3004 25.6664 13.0457 24.5263C12.791 23.3861 11.6603 22.6682 10.5201 22.9229C9.37994 23.1776 8.66209 24.3083 8.91676 25.4485C9.17143 26.5887 10.3022 27.3065 11.4424 27.0518Z" fill="#FF4155"/>
<path d="M18.9256 25.2699C19.0903 24.1134 18.2864 23.0423 17.1299 22.8776C15.9735 22.7129 14.9025 23.517 14.7378 24.6735C14.5731 25.83 15.377 26.9011 16.5334 27.0658C17.6899 27.2305 18.7609 26.4265 18.9256 25.2699Z" fill="#FFDD40"/>
<path d="M24.7993 24.9805C24.7993 26.1486 23.8522 27.0957 22.6842 27.0957C21.5161 27.0957 20.569 26.1486 20.569 24.9805C20.569 23.8123 21.5161 22.8652 22.6842 22.8652C23.8522 22.8652 24.7993 23.8123 24.7993 24.9805Z" fill="#38C674"/>
<path d="M46.875 58.126C51.8414 58.126 56.0859 54.9797 57.7226 50.5762C57.7103 50.5735 57.6984 50.5702 57.6861 50.5674C56.0142 48.8954 55.5902 45.7255 55.514 43.5077C54.6414 44.5241 53.7256 45.3741 52.8506 46.0538C51.1457 47.3778 49.042 48.0967 46.8752 48.0967C44.7084 48.0967 42.6047 47.3776 40.8998 46.0538C40.0248 45.3743 39.109 44.5241 38.2363 43.5077C38.16 45.7255 37.7361 48.8956 36.0639 50.5674C36.0516 50.5704 36.0396 50.5733 36.0273 50.5762C37.6639 54.9797 41.9084 58.126 46.875 58.126Z" fill="#FCAD6D"/>
<path d="M46.8751 48.0965C44.7083 48.0965 42.6045 47.3774 40.8997 46.0535C40.0247 45.374 39.1088 44.5239 38.2362 43.5074C38.1598 45.7252 37.736 48.8953 36.0637 50.5672C36.0514 50.5701 36.0395 50.5731 36.0272 50.576C37.0495 53.3264 39.0891 55.5862 41.6866 56.8953C41.7549 56.8864 41.8192 56.8791 41.878 56.8735C42.1967 56.8426 42.5006 56.7231 42.7508 56.5233C45.8661 54.0371 46.8292 50.31 47.1253 48.091C47.042 48.0936 46.9586 48.0965 46.8751 48.0965Z" fill="#FD995B"/>
<path d="M12.4932 82.2408H85.1037C84.8461 80.6308 84.4869 78.9318 83.9957 77.1668C83.9957 77.1668 86.1519 57.1371 70.9949 55.8978C69.8803 55.8068 69.2871 55.3742 67.9732 54.6334C66.1615 53.6117 64.3328 52.7375 62.4404 52.016C60.1816 58.4375 54.0588 63.0547 46.8748 63.0547C39.6908 63.0547 33.5682 58.4375 31.3094 52.016C29.4172 52.7375 27.5883 53.6117 25.7768 54.6332C24.4629 55.374 23.8697 55.8064 22.7551 55.8976C7.59804 57.1369 9.75429 77.1666 9.75429 77.1666C9.63007 77.6131 9.51444 78.0552 9.40643 78.4927C10.3726 79.7945 11.4027 81.0457 12.4932 82.2408Z" fill="#73C3F9"/>
<path d="M21.4066 69.4984C21.4066 62.714 33.0439 60.6861 36.2267 60.2583C36.5613 60.2134 36.867 60.0654 37.1131 59.8445C34.467 57.8939 32.4203 55.1742 31.3094 52.0164C29.4172 52.7378 27.5883 53.6121 25.7767 54.6335C24.4629 55.3744 23.8697 55.8068 22.7551 55.898C7.59804 57.1373 9.75429 77.1669 9.75429 77.1669C9.63007 77.6134 9.51444 78.0556 9.40643 78.4931C10.3726 79.7945 11.4027 81.0457 12.4932 82.2408H21.4066V69.4984Z" fill="#4FABF7"/>
<path d="M43.9858 2.63337C35.3094 3.8156 34.4848 8.73474 34.4809 10.5396C34.4801 10.9181 34.2703 11.2689 33.9301 11.4345C29.417 13.6301 31.8502 24.2113 31.8502 24.2113C32.3033 24.2416 32.9832 24.6304 33.3369 24.8017C33.4235 24.2625 33.5651 23.7316 33.7647 23.2185C33.9168 22.8275 34.107 22.4326 34.3449 22.0594C34.7576 21.4119 34.9457 20.648 34.8895 19.8843C34.7274 17.6769 34.6 13.5326 37.5139 12.2215C39.9824 11.1107 43.0104 11.7539 44.9414 12.3961C46.1955 12.8131 47.5539 12.8131 48.808 12.3961C50.7391 11.7539 53.767 11.1107 56.2356 12.2215C59.141 13.5289 59.0217 17.6521 58.8613 19.8654C58.8055 20.6349 58.9885 21.4066 59.4043 22.0592C59.6498 22.4443 59.8447 22.8527 59.9994 23.2562C60.1916 23.7576 60.3283 24.2756 60.4127 24.8017C60.8586 24.5857 61.7016 24.1449 62.2469 24.222C62.3137 21.9084 62.5272 19.414 62.5272 19.414C65.0988 6.82107 53.3278 1.36052 43.9858 2.63337Z" fill="#A05838"/>
<path d="M47.3404 2.46536C46.2069 2.42903 45.0795 2.4845 43.9858 2.63372C35.3094 3.81594 34.4848 8.73508 34.4809 10.5398C34.4801 10.9183 34.2703 11.2691 33.9301 11.4347C29.417 13.6302 31.8502 24.2114 31.8502 24.2114C32.3033 24.2417 32.9832 24.6306 33.3369 24.8021C33.4237 24.2628 33.5651 23.732 33.7647 23.2189C33.9168 22.8279 34.107 22.4329 34.3449 22.0597C34.7576 21.4122 34.9457 20.6484 34.8897 19.8847C34.7274 17.6773 34.6002 13.5329 37.5141 12.2218C39.9826 11.1111 43.0106 11.7542 44.9416 12.3964C45.2408 12.4958 45.5461 12.57 45.8543 12.622C45.7742 12.4652 45.6897 12.3103 45.5959 12.1587C42.1998 6.67473 45.9125 3.44192 47.3404 2.46536Z" fill="#823C26"/>
<path d="M46.875 63.3634C54.1894 63.3634 60.4242 58.6645 62.7279 52.1282C61.1029 51.4932 59.4326 50.9704 57.6863 50.5675C57.6144 50.4954 57.5477 50.4173 57.4803 50.3397C55.9227 54.6936 51.7576 57.818 46.875 57.818C41.9924 57.818 37.8273 54.6936 36.2697 50.3399C36.2023 50.4173 36.1357 50.4956 36.0636 50.5675C34.3174 50.9704 32.6472 51.493 31.022 52.1282C33.3257 58.6645 39.5603 63.3634 46.875 63.3634Z" fill="#4FABF7"/>
<path d="M36.2697 50.3397C36.2023 50.4171 36.1357 50.4954 36.0636 50.5673C34.3173 50.9702 32.6472 51.4928 31.022 52.128C32.1437 55.3104 34.199 58.0548 36.855 60.0358C37.0703 59.9065 37.2574 59.7302 37.3998 59.5157C38.8035 57.4003 40.9593 56.963 41.8779 56.8737C41.991 56.8628 42.1007 56.8368 42.2084 56.8038C39.4568 55.545 37.2965 53.2098 36.2697 50.3397Z" fill="#1E9EF4"/>
<path d="M35.8411 48.7635L33.4633 50.0585C32.9569 50.3344 32.7514 50.9561 32.9942 51.4794L41.3542 69.4987C42.4667 68.2688 43.9835 67.4118 45.6926 67.1378L37.4079 49.2807C37.1333 48.6884 36.4149 48.451 35.8411 48.7635Z" fill="#FF4155"/>
<path d="M60.2867 50.0583L57.909 48.7633C57.3351 48.4508 56.617 48.688 56.342 49.2805L48.0574 67.1376C49.7666 67.4116 51.2834 68.2685 52.3959 69.4983L60.7558 51.4792C60.9984 50.9561 60.7931 50.3342 60.2867 50.0583Z" fill="#FF4155"/>
<path d="M52.7496 57.0237L48.0573 67.1375C49.7664 67.4116 51.2832 68.2684 52.3957 69.4983L57.2377 59.0618C53.6486 60.9973 52.7498 57.0239 52.7496 57.0237Z" fill="#E80054"/>
<path d="M95.5623 10.7112H92.9799C92.2977 10.7112 91.7424 10.1562 91.7424 9.47393V6.89131C91.7424 3.82061 89.5748 2.79541 88.1916 2.45361H69.092C68.3143 2.45361 67.6836 3.08408 67.6836 3.86201V47.2603C67.6836 48.038 68.3141 48.6687 69.092 48.6687H98.5916C99.3693 48.6687 100 48.0382 100 47.2604V13.7513C99.1719 10.7804 95.6041 10.7114 95.5623 10.7112Z" fill="#E9EFFF"/>
<path d="M77.8628 47.2602V3.86177C77.8628 3.08403 78.4935 2.45337 79.2711 2.45337H69.092C68.3142 2.45337 67.6837 3.08384 67.6837 3.86177V47.26C67.6837 48.0377 68.3142 48.6684 69.092 48.6684H79.2711C78.4935 48.6684 77.8628 48.0379 77.8628 47.2602Z" fill="#D3DCFB"/>
<path d="M98.5469 9.429L93.0244 3.90674C92.094 2.97627 90.832 2.45361 89.5162 2.45361H87.0652C87.0652 2.45361 91.5713 2.52217 91.5713 6.89131V9.47373C91.5713 10.2515 92.2018 10.8821 92.9795 10.8821H95.5619C95.5619 10.8821 99.9996 10.9187 99.9996 15.0782V12.9372C100 11.6214 99.4774 10.3595 98.5469 9.429Z" fill="#D3DCFB"/>
<path d="M75.4606 21.0253C75.0665 21.0253 74.6721 20.875 74.3713 20.5742L72.3811 18.5837C71.7795 17.9822 71.7795 17.007 72.3811 16.4054C72.9827 15.8039 73.9581 15.8037 74.5594 16.4054L75.4608 17.3066L77.5665 15.2009C78.168 14.5994 79.1434 14.5994 79.7448 15.2009C80.3463 15.8025 80.3463 16.7779 79.7448 17.3793L76.5499 20.5742C76.2491 20.875 75.8549 21.0253 75.4606 21.0253Z" fill="#38C674"/>
<path d="M75.4605 30.9643C75.0664 30.9643 74.672 30.8139 74.3713 30.5131L72.3808 28.5227C71.7793 27.9211 71.7793 26.9459 72.3808 26.3443C72.9824 25.7428 73.9578 25.7426 74.5592 26.3443L75.4605 27.2455L77.5662 25.1396C78.1678 24.5381 79.1431 24.5381 79.7445 25.1396C80.3461 25.7412 80.3461 26.7166 79.7445 27.318L76.5496 30.5129C76.249 30.8139 75.8549 30.9643 75.4605 30.9643Z" fill="#38C674"/>
<path d="M75.4605 40.903C75.0664 40.903 74.672 40.7526 74.3713 40.4519L72.3808 38.4616C71.7793 37.8601 71.7793 36.8849 72.3808 36.2833C72.9824 35.6817 73.9578 35.6815 74.5592 36.2833L75.4605 37.1845L77.5662 35.0786C78.1678 34.4771 79.1431 34.4771 79.7445 35.0786C80.3461 35.6802 80.3461 36.6556 79.7445 37.2569L76.5496 40.4519C76.249 40.7526 75.8549 40.903 75.4605 40.903Z" fill="#38C674"/>
<path d="M94.0211 17.7848H83.8418C82.991 17.7848 82.3013 17.0952 82.3013 16.2444C82.3013 15.3936 82.991 14.704 83.8418 14.704H94.0209C94.8716 14.704 95.5613 15.3936 95.5613 16.2444C95.5615 17.0952 94.8716 17.7848 94.0211 17.7848Z" fill="#BEC8F7"/>
<path d="M94.0211 27.6811H83.8418C82.991 27.6811 82.3013 26.9914 82.3013 26.1406C82.3013 25.2899 82.991 24.6002 83.8418 24.6002H94.0209C94.8716 24.6002 95.5613 25.2899 95.5613 26.1406C95.5615 26.9914 94.8716 27.6811 94.0211 27.6811Z" fill="#BEC8F7"/>
<path d="M94.0211 37.5767H83.8418C82.991 37.5767 82.3013 36.8871 82.3013 36.0363C82.3013 35.1855 82.991 34.4958 83.8418 34.4958H94.0209C94.8716 34.4958 95.5613 35.1855 95.5613 36.0363C95.5615 36.8871 94.8716 37.5767 94.0211 37.5767Z" fill="#BEC8F7"/>
<path d="M89.2701 22.5273H83.8418C82.991 22.5273 82.3013 21.8376 82.3013 20.9868C82.3013 20.1361 82.991 19.4464 83.8418 19.4464H89.2699C90.1207 19.4464 90.8103 20.1361 90.8103 20.9868C90.8103 21.8376 90.1207 22.5273 89.2701 22.5273Z" fill="#BEC8F7"/>
<path d="M89.2701 32.4233H83.8418C82.991 32.4233 82.3013 31.7336 82.3013 30.8828C82.3013 30.0321 82.991 29.3424 83.8418 29.3424H89.2699C90.1207 29.3424 90.8103 30.0321 90.8103 30.8828C90.8103 31.7336 90.1207 32.4233 89.2701 32.4233Z" fill="#BEC8F7"/>
<path d="M89.2701 42.3191H83.8418C82.991 42.3191 82.3013 41.6295 82.3013 40.7787C82.3013 39.9279 82.991 39.2383 83.8418 39.2383H89.2699C90.1207 39.2383 90.8103 39.9279 90.8103 40.7787C90.8103 41.6295 90.1207 42.3191 89.2701 42.3191Z" fill="#BEC8F7"/>
<path d="M63.017 24.5227C62.3412 23.9034 60.9951 24.2173 60.4131 24.5966C60.5406 25.3905 60.5479 26.2028 60.4377 27.005L59.7508 32.0071C59.7508 32.4104 59.7381 32.8059 59.7147 33.1946C61.3895 33.6997 62.2213 32.1962 62.3615 31.1643C62.4219 30.7202 62.5205 30.2825 62.6572 29.8552C63.1029 28.4641 64.71 26.0743 63.017 24.5227Z" fill="#FCAD6D"/>
<path d="M61.5484 29.1199C61.0562 29.1199 60.5957 28.9883 60.1967 28.761L59.7509 32.007C59.7509 32.4104 59.7383 32.8059 59.7148 33.1945C61.3896 33.6996 62.2216 32.1961 62.3617 31.1643C62.422 30.7201 62.5207 30.2824 62.6576 29.8551C62.7746 29.4899 62.9715 29.0553 63.1679 28.5856C62.7138 28.9199 62.1552 29.1199 61.5484 29.1199Z" fill="#FD995B"/>
<path d="M30.7332 24.5227C31.409 23.9034 32.7551 24.2173 33.3371 24.5966C33.2096 25.3905 33.2024 26.2028 33.3125 27.005L33.9994 32.0071C33.9994 32.4104 34.0121 32.8059 34.0356 33.1946C32.3607 33.6997 31.5289 32.1962 31.3887 31.1643C31.3283 30.7202 31.2297 30.2825 31.093 29.8552C30.6471 28.4641 29.04 26.0743 30.7332 24.5227Z" fill="#FCAD6D"/>
<path d="M33.5537 28.7632C33.1554 28.9894 32.6961 29.12 32.2054 29.12C31.5961 29.12 31.0351 28.9185 30.5804 28.5815C30.7773 29.0528 30.9752 29.4888 31.0926 29.8552C31.2293 30.2823 31.3279 30.7202 31.3883 31.1644C31.5283 32.1962 32.3603 33.6997 34.0349 33.1946C34.0115 32.806 33.9988 32.4103 33.9988 32.0071L33.5537 28.7632Z" fill="#FD995B"/>
<path d="M60.205 23.0508C60.0504 22.6475 59.8556 22.2391 59.6101 21.8539C59.1943 21.2014 59.0113 20.4297 59.0672 19.6602C59.2275 17.4469 59.1416 13.1182 56.2359 11.8108C53.7676 10.7 50.7396 11.3432 48.8086 11.9852C47.5545 12.4022 46.1955 12.4022 44.9414 11.9852C43.0103 11.343 39.9826 10.7 37.5143 11.8108C34.6004 13.1219 34.5223 17.4715 34.6846 19.6791C34.7406 20.4428 34.5527 21.2067 34.14 21.8541C33.9021 22.2274 33.7119 22.6223 33.5598 23.0133C33.066 24.2815 32.9221 25.6571 33.107 27.0037L33.7939 32.0071C33.7939 39.2 37.6336 44.0891 40.8998 46.6254C42.6047 47.9492 44.7084 48.6684 46.8752 48.6684C49.042 48.6684 51.1459 47.9492 52.8506 46.6254C56.1168 44.0891 59.9564 39.2 59.9564 32.0071L60.6433 27.0049C60.8261 25.6711 60.6873 24.3092 60.205 23.0508Z" fill="#F9BA8F"/>
<path d="M49.591 46.6252C46.325 44.0889 42.4851 39.1998 42.4851 32.0069L41.7982 27.0035C41.6133 25.6567 41.7572 24.2813 42.251 23.0131C42.4031 22.6221 42.5933 22.2272 42.8312 21.8539C43.2439 21.2065 43.432 20.4426 43.3758 19.6789C43.2258 17.6379 43.2832 13.767 45.5961 12.1584C45.3758 12.1114 45.1566 12.0567 44.9414 11.9852C43.0103 11.343 39.9826 10.7 37.514 11.8108C34.6004 13.1219 34.522 17.4715 34.6843 19.6789C34.7404 20.4426 34.5525 21.2065 34.1398 21.8539C33.9019 22.2272 33.7117 22.6221 33.5595 23.0131C33.0658 24.2813 32.922 25.6569 33.1068 27.0035L33.7937 32.0069C33.7937 39.1998 37.6334 44.0889 40.8996 46.6252C42.6045 47.9491 44.7082 48.6682 46.875 48.6682C48.3932 48.6682 49.8799 48.3139 51.2207 47.6471C50.6478 47.3623 50.1014 47.0215 49.591 46.6252Z" fill="#FCAD6D"/>
<path d="M98.5263 86.8368H68.1167V88.5407C68.1167 89.7366 67.1438 90.7096 65.9477 90.7096H27.8024C26.6063 90.7096 25.6335 89.7366 25.6335 88.5407V86.8368H17.3098C21.6632 90.4503 26.6677 93.3048 32.1208 95.2024H88.9825C89.7397 95.2024 90.495 95.1026 91.2208 94.8868C91.2247 94.8856 91.2286 94.8845 91.2325 94.8833L96.2061 93.4007C98.4565 92.7298 99.9993 90.6608 100 88.3126C100 87.4981 99.3405 86.8368 98.5263 86.8368Z" fill="#E9EFFF"/>
<path d="M17.3098 86.8368C21.6632 90.4503 26.6677 93.3048 32.1208 95.2024H44.6872C42.3333 92.8485 44.6872 91.0196 44.6872 91.0196L44.538 90.7096H27.8024C26.6063 90.7096 25.6335 89.7366 25.6335 88.5407V86.8368H17.3098Z" fill="#D3DCFB"/>
<path d="M25.3235 86.8368V88.5409C25.3235 89.9042 26.4389 91.0196 27.8022 91.0196H65.9475C67.3108 91.0196 68.4262 89.9042 68.4262 88.5409V86.8368H25.3235Z" fill="#D3DCFB"/>
<path d="M42.2084 88.5409V86.8368H25.3235V88.5409C25.3235 89.9042 26.4389 91.0196 27.8022 91.0196H44.6871C43.3239 91.0196 42.2084 89.904 42.2084 88.5409Z" fill="#BEC8F7"/>
<path d="M89.5164 2.45361H87.0654C87.0654 2.45361 91.5713 2.52217 91.5713 6.8915V9.47393C91.5713 10.2517 92.202 10.8823 92.9795 10.8823H94.0209C92.6119 7.29736 95.7037 6.58623 95.7037 6.58623L93.0242 3.90674C92.0941 2.97627 90.8322 2.45361 89.5164 2.45361Z" fill="#BEC8F7"/>
<path d="M45.5793 66.8934L41.0004 57.0237C41.0004 57.0241 40.8139 60.4805 36.9696 60.0475L41.3543 69.4985C42.4004 68.342 43.8038 67.5157 45.3883 67.1932L45.5793 66.8934Z" fill="#E80054"/>
<path d="M48.0251 80.6137C52.2557 79.9585 55.1541 75.9979 54.499 71.7674C53.8438 67.5368 49.8832 64.6384 45.6526 65.2935C41.4221 65.9486 38.5236 69.9093 39.1788 74.1398C39.8339 78.3704 43.7946 81.2688 48.0251 80.6137Z" fill="#FFB332"/>
<path d="M49.5573 78.181C48.5315 77.7963 48.5538 76.7345 48.5864 76.4078C48.5932 76.3402 48.5889 76.272 48.5715 76.2066L47.2823 71.3406C47.2643 71.2728 47.2336 71.2092 47.1918 71.1529L45.4901 68.8592C45.4209 68.766 45.3233 68.697 45.2125 68.6625C44.6666 68.4928 44.5637 68.0847 44.5739 67.7711C44.5817 67.5312 44.4196 67.3228 44.1957 67.2363C43.5977 67.0056 43.285 66.5972 43.1319 66.1576C40.7412 67.4783 39.1217 70.0234 39.1217 72.9478C39.1217 77.2297 42.593 80.701 46.8749 80.701C48.0333 80.701 49.1313 80.4451 50.1184 79.9896C49.8643 79.5787 49.8569 79.1043 49.903 78.7617C49.9368 78.5129 49.7921 78.2691 49.5573 78.181Z" fill="#FF9100"/>
<path d="M46.875 82.241C41.7504 82.241 37.5815 78.0721 37.5815 72.9475C37.5815 67.8231 41.7504 63.6539 46.875 63.6539C51.9996 63.6539 56.1686 67.8229 56.1686 72.9475C56.1686 78.0721 51.9996 82.241 46.875 82.241ZM46.875 66.7348C43.4492 66.7348 40.6623 69.5219 40.6623 72.9475C40.6623 76.3733 43.4494 79.1604 46.875 79.1604C50.3006 79.1604 53.0877 76.3733 53.0877 72.9475C53.0879 69.5219 50.3008 66.7348 46.875 66.7348Z" fill="#FFDD40"/>
<path d="M51.0643 80.6854C49.894 80.2979 49.825 79.3409 49.9031 78.7616C49.9199 78.6374 49.892 78.5141 49.8307 78.4112C48.9512 78.8889 47.9442 79.1606 46.875 79.1606C43.4492 79.1606 40.6623 76.3735 40.6623 72.9477C40.6623 70.4382 42.159 68.2727 44.3059 67.2934C44.2711 67.2714 44.235 67.2514 44.1959 67.2364C43.0192 66.7825 42.9438 65.6417 43.0264 64.9243C43.043 64.7803 43.0016 64.6458 42.9248 64.538C39.7703 66.0257 37.5815 69.2352 37.5815 72.9477C37.5815 78.0722 41.7504 82.2413 46.875 82.2413C48.5262 82.2413 50.0768 81.8065 51.4221 81.0485C51.3711 80.8856 51.2459 80.7456 51.0643 80.6854Z" fill="#FFB332"/>
<path d="M47.2608 77.0901C46.41 77.0901 45.7203 76.4004 45.7203 75.5497V71.75H45.6928C44.8422 71.75 44.1524 71.0604 44.1524 70.2096C44.1524 69.3588 44.842 68.6692 45.6928 68.6692H47.2608C48.1115 68.6692 48.8012 69.3588 48.8012 70.2096V75.5495C48.801 76.4004 48.1115 77.0901 47.2608 77.0901Z" fill="#FFDD40"/>
</svg>
